HIERARCHY
ROOT hip
{
  OFFSET 0 0 0
  CHANNELS 6 Xposition Yposition Zposition Zrotation Yrotation Xrotation
  JOINT abdomen
  {
    OFFSET 0 20.6881 -0.73152
    CHANNELS 3 Zrotation Xrotation Yrotation
    JOINT chest
    {
      OFFSET 0 11.7043 -0.48768
      CHANNELS 3 Zrotation Xrotation Yrotation
      JOINT neck
      {
        OFFSET 0 22.1894 -2.19456
        CHANNELS 3 Zrotation Xrotation Yrotation
        JOINT head
        {
          OFFSET -0.24384 7.07133 1.2192
          CHANNELS 3 Zrotation Xrotation Yrotation
          JOINT leftEye
          {
            OFFSET 4.14528 8.04674 8.04672
            CHANNELS 3 Zrotation Xrotation Yrotation
            End Site
            {
              OFFSET 1 0 0
            }
          }
          JOINT rightEye
          {
            OFFSET -3.6576 8.04674 8.04672
            CHANNELS 3 Zrotation Xrotation Yrotation
            End Site
            {
              OFFSET 1 0 0
            }
          }
        }
      }
      JOINT rCollar
      {
        OFFSET -2.68224 19.2634 -4.8768
        CHANNELS 3 Zrotation Xrotation Yrotation
        JOINT rShldr
        {
          OFFSET -8.77824 -1.95073 1.46304
          CHANNELS 3 Zrotation Xrotation Yrotation
          JOINT rForeArm
          {
            OFFSET -28.1742 -1.7115 0.48768
            CHANNELS 3 Zrotation Xrotation Yrotation
            JOINT rHand
            {
              OFFSET -22.5879 0.773209 7.07136
              CHANNELS 3 Zrotation Xrotation Yrotation
              JOINT rThumb1
              {
                OFFSET -1.2192 -0.487915 3.41376
                CHANNELS 3 Zrotation Xrotation Yrotation
                JOINT rThumb2
                {
                  OFFSET -3.37035 -0.52449 3.41376
                  CHANNELS 3 Zrotation Xrotation Yrotation
                  End Site
                  {
                    OFFSET -1.78271 -1.18214 1.43049
                  }
                }
              }
              JOINT rIndex1
              {
                OFFSET -7.75947 0.938293 5.60832
                CHANNELS 3 Zrotation Xrotation Yrotation
                JOINT rIndex2
                {
                  OFFSET -2.54057 -0.884171 1.56538
                  CHANNELS 3 Zrotation Xrotation Yrotation
                  End Site
                  {
                    OFFSET -1.62519 -0.234802 1.16502
                  }
                }
              }
              JOINT rMid1
              {
                OFFSET -8.24714 1.18213 3.41376
                CHANNELS 3 Zrotation Xrotation Yrotation
                JOINT rMid2
                {
                  OFFSET -3.10165 -0.590103 1.0647
                  CHANNELS 3 Zrotation Xrotation Yrotation
                  End Site
                  {
                    OFFSET -2.48547 -0.328903 0.83742
                  }
                }
              }
              JOINT rRing1
              {
                OFFSET -8.82822 0.546677 1.51678
                CHANNELS 3 Zrotation Xrotation Yrotation
                JOINT rRing2
                {
                  OFFSET -2.60934 -0.819778 -0.0198488
                  CHANNELS 3 Zrotation Xrotation Yrotation
                  End Site
                  {
                    OFFSET -2.33842 -0.294052 0.168128
                  }
                }
              }
              JOINT rPinky1
              {
                OFFSET -8.27202 -0.0477905 -0.4584
                CHANNELS 3 Zrotation Xrotation Yrotation
                JOINT rPinky2
                {
                  OFFSET -1.82734 -0.647385 -0.700984
                  CHANNELS 3 Zrotation Xrotation Yrotation
                  End Site
                  {
                    OFFSET -1.69225 -0.51767 -0.607171
                  }
                }
              }
            }
          }
        }
      }
      JOINT lCollar
      {
        OFFSET 2.68224 19.2634 -4.8768
        CHANNELS 3 Zrotation Xrotation Yrotation
        JOINT lShldr
        {
          OFFSET 8.77824 -1.95073 1.46304
          CHANNELS 3 Zrotation Xrotation Yrotation
          JOINT lForeArm
          {
            OFFSET 28.1742 -1.7115 0.48768
            CHANNELS 3 Zrotation Xrotation Yrotation
            JOINT lHand
            {
              OFFSET 22.5879 0.773209 7.07136
              CHANNELS 3 Zrotation Xrotation Yrotation
              JOINT lThumb1
              {
                OFFSET 1.2192 -0.487915 3.41376
                CHANNELS 3 Zrotation Xrotation Yrotation
                JOINT lThumb2
                {
                  OFFSET 3.37035 -0.52449 3.41376
                  CHANNELS 3 Zrotation Xrotation Yrotation
                  End Site
                  {
                    OFFSET 1.78271 -1.18214 1.43049
                  }
                }
              }
              JOINT lIndex1
              {
                OFFSET 7.75947 0.938293 5.60832
                CHANNELS 3 Zrotation Xrotation Yrotation
                JOINT lIndex2
                {
                  OFFSET 2.54057 -0.884171 1.56538
                  CHANNELS 3 Zrotation Xrotation Yrotation
                  End Site
                  {
                    OFFSET 1.62519 -0.234802 1.16502
                  }
                }
              }
              JOINT lMid1
              {
                OFFSET 8.24714 1.18213 3.41376
                CHANNELS 3 Zrotation Xrotation Yrotation
                JOINT lMid2
                {
                  OFFSET 3.10165 -0.590103 1.0647
                  CHANNELS 3 Zrotation Xrotation Yrotation
                  End Site
                  {
                    OFFSET 2.48547 -0.328903 0.83742
                  }
                }
              }
              JOINT lRing1
              {
                OFFSET 8.82822 0.546677 1.51678
                CHANNELS 3 Zrotation Xrotation Yrotation
                JOINT lRing2
                {
                  OFFSET 2.60934 -0.819778 -0.0198488
                  CHANNELS 3 Zrotation Xrotation Yrotation
                  End Site
                  {
                    OFFSET 2.33842 -0.294052 0.168128
                  }
                }
              }
              JOINT lPinky1
              {
                OFFSET 8.27202 -0.0477905 -0.4584
                CHANNELS 3 Zrotation Xrotation Yrotation
                JOINT lPinky2
                {
                  OFFSET 1.82734 -0.647385 -0.700984
                  CHANNELS 3 Zrotation Xrotation Yrotation
                  End Site
                  {
                    OFFSET 1.69225 -0.51767 -0.607171
                  }
                }
              }
            }
          }
        }
      }
    }
  }
  JOINT rButtock
  {
    OFFSET -8.77824 4.35084 1.2192
    CHANNELS 3 Zrotation Xrotation Yrotation
    JOINT rThigh
    {
      OFFSET 0 -1.70687 -2.19456
      CHANNELS 3 Zrotation Xrotation Yrotation
      JOINT rShin
      {
        OFFSET 0 -36.8199 0.73152
        CHANNELS 3 Zrotation Xrotation Yrotation
        JOINT rFoot
        {
          OFFSET 0.73152 -45.1104 -5.12064
          CHANNELS 3 Zrotation Xrotation Yrotation
          End Site
          {
            OFFSET -1.1221 -3.69964 12.103
          }
        }
      }
    }
  }
  JOINT lButtock
  {
    OFFSET 8.77824 4.35084 1.2192
    CHANNELS 3 Zrotation Xrotation Yrotation
    JOINT lThigh
    {
      OFFSET 0 -1.70687 -2.19456
      CHANNELS 3 Zrotation Xrotation Yrotation
      JOINT lShin
      {
        OFFSET 0 -36.8199 0.73152
        CHANNELS 3 Zrotation Xrotation Yrotation
        JOINT lFoot
        {
          OFFSET -0.73152 -45.1104 -5.12064
          CHANNELS 3 Zrotation Xrotation Yrotation
          End Site
          {
            OFFSET 1.1221 -3.69964 12.103
          }
        }
      }
    }
  }
}
MOTION
Frames:	8
Frame Time:	0.03333
0.1497 78.9195 0.3775 -22.694055 82.490265 -18.616073 0.064652 2.555196 -57.004735 5.731493 -3.688907 62.568322 -13.617438 23.393835 -83.524874 34.845819 10.31476 70.336409 -0.00211 -0.0 0.001474 0.003527 0.0 0.000447 -156.836405 -13.252046 163.802557 131.919289 -0.032865 179.888767 169.099334 9.560519 117.764088 172.165637 -9.142082 145.087779 -5.68069 5.498412 1.138321 -0.620107 1.696578 4.159068 -150.578456 -15.723574 120.872698 4.77619 12.401687 -7.519196 106.378777 -81.52653 76.451881 -168.316584 -19.556898 144.071224 -0.001673 -0.251642 -0.077945 -156.20255 -16.410374 173.791676 -24.337927 -37.138695 -23.421684 -7.709239 -23.24538 -10.008724 157.061451 -15.152536 -164.166677 4.750769 79.973082 53.227523 41.920801 84.302542 -68.8372 7.559356 48.735694 -5.870467 -120.624025 -49.323529 -59.930461 -172.50568 -85.896444 -139.371328 -28.194245 -48.110366 4.555765 9.834098 32.073402 -9.373267 9.017338 22.092256 -6.106309 160.80798 2.370295 -142.442464 145.1159 -0.219598 179.059101 151.071307 -31.783581 173.864383 -85.973336 88.283943 45.715837 155.831276 36.167291 146.95538 179.999588 75.750721 0.000541 166.376455 46.315295 1.771242 2.996423 51.327434 56.851542 4.836791 -52.489508 -55.528548 0.000878 0.000628 0.000594 15.06589 -29.461292 -5.363576 -15.885314 47.688541 17.25152 -120.906188 -23.468729 -11.890971
0.16590000000000002 78.8918 0.38470000000000004 -23.076295 82.490742 -18.999552 -3.681605 2.870323 47.059697 -2.661334 -7.592324 -41.903586 -9.885269 14.741949 -29.451392 21.951078 -15.828865 21.315955 -0.001481 -0.0 0.001207 -0.001481 -0.0 0.001207 3.11834 -24.98711 -4.918482 68.938873 6.189864 -22.853088 -83.85134 43.922228 76.419364 24.461504 -49.474304 14.350797 -166.542216 -4.216318 89.763984 33.267652 -62.773574 28.428564 2.871152 -4.79718 -1.537072 15.79851 -5.173631 -1.219421 -149.172096 22.610982 135.797728 3.336647 -0.018308 0.32858 -0.022897 -1.715154 -0.539519 -153.101605 21.151852 168.757849 -51.910153 -49.899566 -50.612088 -15.372104 -33.374385 -17.608597 158.585275 -31.710702 -167.223073 -171.411821 -48.614836 132.271195 -167.705137 84.225291 -137.013406 -144.372755 -44.991404 -133.792929 -173.544643 -23.313857 -87.933836 9.409485 -55.513931 4.405424 135.522066 9.194898 -112.95412 2.535542 19.841188 4.31419 -34.541298 -70.914682 -9.275999 2.271628 14.457724 -2.736189 145.108416 -0.860456 178.857708 -11.946783 28.057375 5.809658 -9.800966 31.823026 -8.497697 7.037728 -20.000005 8.112789 179.973944 75.749571 0.021619 166.911861 44.06403 -161.761261 -26.527163 -61.071853 -28.932753 28.778323 31.53158 173.901518 -0.261108 0.00167 -0.204116 16.58966 -30.994504 -111.567767 -53.300463 -33.271739 -6.15261 -42.901861 78.129853 142.504647
0.1846 78.8628 0.3882 -23.129874 82.509896 -19.059903 -1.574404 3.610164 -7.458671 2.700555 -7.549501 12.98987 -4.942455 31.980028 -157.549783 12.668777 40.694004 142.302664 -0.001729 0.0 -0.000986 0.004902 0.0 0.003484 4.249098 -45.308337 -8.76543 64.987062 12.563302 -39.617296 -28.399279 36.906406 44.592096 3.079894 -6.59932 1.044853 -176.332441 -13.954229 89.715477 -22.627568 -39.598714 0.295903 98.86179 -76.108776 49.059023 150.210994 -63.431032 85.429912 -174.571315 -47.733331 144.51217 -158.017184 10.512203 140.697516 -0.067073 -3.775398 -1.18917 9.315791 14.8357 1.968335 13.114503 44.85514 10.84471 4.703128 8.802864 2.1181 151.228599 17.712968 -156.497138 -114.804488 -20.902793 -158.277048 176.077908 29.53085 -120.380581 -141.088885 -47.899537 -130.805173 -13.42978 -13.374485 0.500185 -25.163802 -67.514385 29.087752 -168.332059 -66.464995 -109.063241 149.474914 -0.693619 -116.926029 163.365881 -15.189806 -144.342401 27.706087 50.583268 -23.043474 -0.00314 0.4729 -0.147544 -10.071949 2.970436 -0.314606 135.471669 -12.597283 132.849402 8.484979 -22.506909 11.447802 -179.820111 75.750346 -0.137883 167.828933 45.527234 -70.373663 -62.283507 13.189163 -91.519316 -45.179602 35.802875 -168.014775 -0.534931 0.00291 -0.417941 16.109729 -31.644573 -167.394195 4.654669 -54.462913 123.24339 53.986438 34.859566 33.068708
0.2073 78.83980000000001 0.4 -23.036751 82.530857 -18.989526 0.354642 2.125301 -68.740177 5.825071 -2.519954 74.241047 -13.613662 23.416989 -83.663912 34.81403 10.463897 70.453499 -0.003821 0.0 -0.001674 0.001816 -0.0 -0.002695 -153.421714 8.240256 159.125947 118.391099 -31.738165 158.710431 -130.665951 58.629059 78.45816 147.103007 -53.795337 128.227642 2.112651 -2.096898 -0.286354 -8.169746 8.840774 5.628182 -155.32387 -24.542184 122.168782 -160.339771 -15.239609 119.63162 -160.017235 -4.65642 142.929633 -128.590352 52.058858 117.765131 -145.109119 3.535502 179.761936 5.449817 -32.576112 -14.540043 0.725994 1.932253 0.669978 -144.113002 1.637811 -141.033417 -2.6312 -19.855543 3.974662 -82.359965 22.358785 13.075328 133.170981 44.105649 -99.854069 -57.500576 -59.293964 -50.729907 -4.458697 -4.439956 0.515963 -22.459435 -42.708651 19.243537 97.892778 38.833641 -82.592912 4.559549 17.165071 1.749815 -53.382324 -77.82856 -25.933642 126.009128 54.012 -115.303987 145.097261 -1.524539 178.647789 152.959339 -20.56663 176.178948 154.723436 47.321082 149.246539 -53.35256 82.12522 16.851612 -0.001198 -0.000277 -0.002185 -12.148554 -28.83759 63.592216 52.104716 18.410866 -140.164592 90.429416 40.444381 13.877217 -179.977482 75.748212 -0.016393 -163.721883 42.495028 106.911861 61.709909 -24.983732 66.837806 -90.88254 0.532 -169.598387
0.2242 78.82130000000001 0.4015 -23.00404 82.506978 -19.001467 0.317063 0.381644 -112.300634 4.330199 1.53413 117.64731 -12.222611 17.474443 -48.879588 29.328883 -7.592163 40.057605 -0.000627 0.0 -0.002269 -0.000627 0.0 -0.002269 -155.230897 -1.76936 161.464237 -61.575357 25.06198 11.394809 154.869472 52.515019 -129.057974 -18.335244 48.970771 6.720636 177.79472 -19.520117 88.887284 -138.717876 14.238197 72.80559 -156.811059 -27.277684 122.422698 -37.027748 52.499844 24.515551 -179.377466 -57.009842 142.446783 5.67105 -7.80605 -0.57162 -0.001923 2.861122 0.897374 10.315046 -3.186999 -0.460889 1.785645 4.860909 1.635868 10.644211 27.296479 6.370495 119.599055 61.025509 -123.210412 89.041281 10.84065 -71.384804 -11.033033 -14.975298 55.496368 -149.522082 -39.368277 -138.35764 -7.428049 -7.418223 0.667521 -24.036226 -51.214865 22.615173 128.481351 18.007735 -107.977569 158.008933 -1.511549 -117.240323 161.344055 -8.754705 -143.5503 -2.234056 2.80749 -0.755176 145.123633 1.776842 179.687483 -11.451354 58.761226 1.662524 19.72628 -32.961515 18.906957 150.63172 25.244587 146.294086 179.988268 75.749873 0.00873 166.032255 44.02616 167.343798 37.642257 -54.36333 97.263539 45.241098 -12.435474 131.211441 0.00725 -0.000231 0.006034 14.728588 -29.534625 15.580552 10.548353 62.357836 169.557412 30.86095 31.650926 169.040188
0.23370000000000002 78.7998 0.40619999999999995 -22.895237 82.524478 -18.915813 0.132217 0.061179 -121.021172 3.678824 2.143673 126.371618 -10.588041 15.402585 -34.53643 24.195005 -13.828207 26.362587 0.001506 0.0 3.9e-05 0.001506 0.0 3.9e-05 -158.831448 -35.687362 167.959746 131.632116 16.767247 -160.205582 176.973658 11.367789 115.622863 168.688727 -19.148347 143.70108 -178.745352 -16.279962 89.445856 -145.64805 9.953699 76.947165 -162.999343 -38.064151 122.623998 -152.710138 -2.025126 118.630181 14.338254 -43.478168 -2.876497 5.75203 -8.095587 -0.848186 -0.060848 -3.551716 -1.118513 4.552945 41.591736 7.738586 -39.459346 -46.079198 -38.305638 -59.545651 -54.026586 -60.384792 154.765331 1.048355 -160.840631 -122.153702 -33.404617 -176.346386 -51.7997 -58.622889 -63.894821 71.756414 81.485225 -60.622764 174.931109 -12.584606 -89.825907 1.181243 -55.391047 -5.893908 -5.540007 -9.4918 2.802515 -7.912879 6.797586 -0.501379 19.5128 38.285744 -14.81233 172.277239 -32.199328 -143.995854 145.121278 0.57101 179.308481 -11.023426 11.389279 7.643728 125.162658 -28.666802 122.92631 -24.60101 62.130188 -6.122503 -179.995962 75.74981 -0.003364 165.283842 45.97044 41.993873 40.040372 35.612515 -0.379217 171.833038 -28.585829 61.684144 179.997726 75.74981 0.001545 -161.104852 43.629738 -45.242999 -49.108399 42.752046 -84.695912 37.006534 10.481733 136.638265
0.2431 78.7762 0.4112 -23.016571 82.540541 -19.045002 -3.308499 3.222024 35.129239 -1.518759 -7.990519 -29.835088 0.739458 12.827425 30.90839 -12.238076 -19.322001 -44.728194 0.000369 -0.0 -0.002553 0.001362 0.0 0.002941 -157.581619 -19.937427 165.06516 -53.967261 -1.926085 -8.115678 -2.74779 -29.050181 -66.349854 161.711098 -34.987736 139.662326 8.242264 -8.233902 -0.682811 -135.681604 -33.855518 121.257229 -2.443593 3.857952 1.43512 156.440223 -52.770242 91.6229 8.520613 -26.760589 -3.110737 16.179939 -38.214513 -0.707016 -145.101275 -1.394016 -178.688788 12.171992 34.741613 -5.066932 21.062093 71.344092 12.937537 12.613752 36.144975 6.820014 41.856699 63.514009 -44.493148 109.903258 -2.343958 -105.108535 -3.038047 -36.266448 58.068955 -139.778737 -48.982363 -129.542126 179.003052 -16.525919 -89.412034 7.270224 -53.629297 -1.102497 -176.802905 -61.407896 -114.821555 -73.538211 -64.800722 -19.628689 90.42104 60.648226 -81.826116 133.256092 48.794238 -122.172985 145.116485 2.974844 -179.935966 157.551252 45.709515 -175.49186 143.636884 7.367997 140.448159 90.523422 -50.945409 89.829627 179.908157 75.749404 0.073885 167.410996 44.22869 -139.964703 -50.168391 -40.776924 -115.033322 144.912251 53.018053 129.428063 179.999734 75.749644 7e-05 -163.724801 42.520942 104.514365 59.081677 -15.558019 141.567666 -85.52384 76.730875 -177.365842
0.2604 78.7455 0.4177 -23.251722 82.563645 -19.288086 0.259358 0.307419 -114.528313 4.131946 1.672302 119.900822 -10.402585 15.207092 -33.383842 23.641507 -14.318619 25.177091 -0.000307 0.0 -0.002543 -0.000307 0.0 -0.002543 3.449856 -62.724135 -13.26794 124.906563 43.636253 -85.70516 -167.583307 44.881696 108.736603 161.904682 -34.613588 139.793298 -8.211052 7.855358 1.809738 -121.836749 -17.094214 107.526407 12.909915 -23.076001 -5.283946 176.16506 -43.182836 102.893158 -14.503947 31.607118 10.522556 -164.36609 -8.488175 143.668081 -0.008325 -0.838329 -0.263297 9.906337 6.301314 0.754394 -107.575656 -43.207272 -105.688142 -165.348572 65.976976 -146.571227 -1.142587 -7.483298 1.587124 -79.958491 -10.507559 2.279582 12.583953 34.645871 -31.754861 2.459314 34.545897 -4.832037 45.329401 32.155936 -20.04141 36.423372 9.004974 -42.423343 99.385394 38.2928 -83.90218 60.348661 52.614175 -40.604188 3.206139 8.831338 -1.941396 -10.331529 -21.734804 1.565463 145.102863 -1.29208 178.720813 -12.083404 52.352275 2.782771 143.638861 7.368387 140.448514 52.298074 -51.379428 52.690987 0.001936 0.000543 0.002105 -11.049216 -30.508269 179.62208 -26.12957 -55.559648 -100.410383 -57.354158 -42.144821 -129.065937 0.033842 -0.000585 0.026611 14.765789 -29.582188 13.353342 -5.101378 57.000331 -98.715091 155.537124 -36.799332 -128.684542
